<?xml version="1.0" encoding="UTF-8"?>
<svg id="Layer_1" data-name="Layer 1" xmlns="http://www.w3.org/2000/svg" viewBox="0 0 139 43">
  <defs>
    <style>
      .cls-1, .cls-2, .cls-3, .cls-4 {
        stroke-width: 0px;
      }

      .cls-2 {
        fill: #8e93ff;
      }

      .cls-3 {
        fill: #5b62f6;
      }

      .cls-4 {
        fill: #1e28ff;
      }
    </style>
  </defs>
  <path class="cls-4" d="M45.86,8.31h18.13l-15.66,26.37h-18.13l15.66-26.37Z"/>
  <path class="cls-3" d="M29.38,8.31h13.19l-15.66,26.37h-13.19l15.66-26.37Z"/>
  <path class="cls-2" d="M16.19,8.31h9.89l-15.66,26.37H.53l15.66-26.37Z"/>
  <g>
    <path class="cls-1" d="M69.21,34.64V8.36h5.08v26.28h-5.08ZM72.95,34.64v-4.52h13.38v4.52h-13.38Z"/>
    <path class="cls-1" d="M89.95,34.64V8.36h3.59l10.65,17.04h-2.05l10.61-17.04h3.59v26.28h-5.08v-17.53l1.01.26-7.36,11.89h-3.51l-7.33-11.89.97-.26v17.53h-5.08Z"/>
    <path class="cls-1" d="M128.79,35.05c-2.09,0-3.89-.36-5.4-1.08-1.51-.72-2.87-1.82-4.09-3.29l3.36-3.36c.8,1.02,1.7,1.81,2.71,2.37,1.01.56,2.25.84,3.72.84,1.32,0,2.37-.26,3.14-.78.77-.52,1.16-1.25,1.16-2.17,0-.8-.22-1.44-.67-1.94-.45-.5-1.04-.92-1.77-1.25-.74-.34-1.55-.65-2.43-.93-.88-.29-1.76-.62-2.64-.99-.87-.37-1.68-.85-2.43-1.42-.75-.57-1.34-1.3-1.78-2.17-.44-.87-.65-1.99-.65-3.36,0-1.59.39-2.95,1.16-4.07.77-1.12,1.83-1.98,3.18-2.58,1.35-.6,2.87-.9,4.56-.9,1.79,0,3.42.34,4.88,1.01,1.46.67,2.64,1.55,3.53,2.62l-3.36,3.36c-.77-.85-1.56-1.47-2.37-1.87-.81-.4-1.73-.6-2.75-.6-1.17,0-2.09.23-2.77.69-.67.46-1.01,1.1-1.01,1.93,0,.72.22,1.3.67,1.74.45.44,1.04.82,1.78,1.16.73.34,1.55.65,2.45.95.9.3,1.78.64,2.65,1.03.87.39,1.68.87,2.41,1.46.73.59,1.33,1.35,1.77,2.28.45.93.67,2.09.67,3.46,0,2.44-.86,4.37-2.58,5.77-1.72,1.41-4.09,2.11-7.1,2.11Z"/>
  </g>
</svg>